<svg xmlns="http://www.w3.org/2000/svg" xmlns:xlink="http://www.w3.org/1999/xlink" width="362.445" height="105.094" viewBox="0 0 362.445 105.094">
  <defs>
    <style>
      .cls-1 {
        clip-path: url(#clip-path);
      }

      .cls-2, .cls-4 {
        fill: #fff;
      }

      .cls-2 {
        fill-rule: evenodd;
      }

      .cls-3 {
        clip-path: url(#clip-path-2);
      }
    </style>
    <clipPath id="clip-path">
      <path id="Path_48" data-name="Path 48" d="M125,145.2h62v82.836H125Zm0,0"/>
    </clipPath>
    <clipPath id="clip-path-2">
      <path id="Path_50" data-name="Path 50" d="M189.152,145H251v86H189.152Zm0,0"/>
    </clipPath>
  </defs>
  <g id="Group_173" data-name="Group 173" transform="translate(-1659.614 -1934)">
    <g id="Group_87" data-name="Group 87" class="cls-1" transform="translate(1654 1790.805)">
      <path id="Path_47" data-name="Path 47" class="cls-2" d="M156.582,187.313l-31.023-21.95V144.426l60.621,42.887-60.621,42.5v-20.75l31.023-21.746"/>
    </g>
    <g id="Group_88" data-name="Group 88" class="cls-3" transform="translate(1654 1789)">
      <path id="Path_49" data-name="Path 49" class="cls-2" d="M219.461,187.68l31.023,21.945v20.941L189.867,187.68l60.617-42.5v20.75L219.461,187.68"/>
    </g>
    <g id="Group_90" data-name="Group 90" transform="translate(1654 1788.703)">
      <g id="Group_89" data-name="Group 89" transform="translate(259.137 196.125)">
        <path id="Path_51" data-name="Path 51" class="cls-4" d="M8.359-14.828a8.2,8.2,0,0,1,3.219.672,8.2,8.2,0,0,1,2.7,1.813L12.109-9.781a5.187,5.187,0,0,0-1.7-1.406A4.305,4.305,0,0,0,8.422-11.7,3.871,3.871,0,0,0,5.5-10.469,4.243,4.243,0,0,0,4.328-7.437,4.347,4.347,0,0,0,5.5-4.344,3.857,3.857,0,0,0,8.422-3.109a4.62,4.62,0,0,0,1.922-.453,5.952,5.952,0,0,0,1.766-1.266L14.3-2.516A9.077,9.077,0,0,1,11.469-.562,7.779,7.779,0,0,1,8.234.172,7.588,7.588,0,0,1,2.7-1.984,7.28,7.28,0,0,1,.5-7.391a6.99,6.99,0,0,1,2.25-5.3A7.821,7.821,0,0,1,8.359-14.828Zm0,0"/>
      </g>
    </g>
    <g id="Group_92" data-name="Group 92" transform="translate(1654 1788.703)">
      <g id="Group_91" data-name="Group 91" transform="translate(281.607 196.125)">
        <path id="Path_52" data-name="Path 52" class="cls-4" d="M8.438-14.828a7.963,7.963,0,0,1,5.688,2.141,6.965,6.965,0,0,1,2.281,5.313,7.139,7.139,0,0,1-2.281,5.391A7.964,7.964,0,0,1,8.438.172,7.933,7.933,0,0,1,2.766-1.984,7.129,7.129,0,0,1,.5-7.375,7,7,0,0,1,2.766-12.7,8.01,8.01,0,0,1,8.438-14.828ZM8.484-11.7a3.955,3.955,0,0,0-2.937,1.25A4.284,4.284,0,0,0,4.328-7.344,4.31,4.31,0,0,0,5.547-4.234,3.957,3.957,0,0,0,8.484-2.969a3.821,3.821,0,0,0,2.891-1.266,4.382,4.382,0,0,0,1.188-3.109,4.356,4.356,0,0,0-1.187-3.109A3.847,3.847,0,0,0,8.484-11.7Zm0,0"/>
      </g>
    </g>
    <g id="Group_94" data-name="Group 94" transform="translate(1654 1788.578)">
      <g id="Group_93" data-name="Group 93" transform="translate(306.45 196.125)">
        <path id="Path_53" data-name="Path 53" class="cls-4" d="M11.234-2.7H4.813L3.734,0H-.109L6.234-14.7h3.844L16.281,0h-4ZM10.141-5.547,8.047-10.984,5.906-5.547Zm0,0"/>
      </g>
    </g>
    <g id="Group_96" data-name="Group 96" transform="translate(1654 1788.703)">
      <g id="Group_95" data-name="Group 95" transform="translate(330.558 196.125)">
        <path id="Path_54" data-name="Path 54" class="cls-4" d="M8.359-14.828a8.2,8.2,0,0,1,3.219.672,8.2,8.2,0,0,1,2.7,1.813L12.109-9.781a5.187,5.187,0,0,0-1.7-1.406A4.305,4.305,0,0,0,8.422-11.7,3.871,3.871,0,0,0,5.5-10.469,4.243,4.243,0,0,0,4.328-7.437,4.347,4.347,0,0,0,5.5-4.344,3.857,3.857,0,0,0,8.422-3.109a4.62,4.62,0,0,0,1.922-.453,5.952,5.952,0,0,0,1.766-1.266L14.3-2.516A9.077,9.077,0,0,1,11.469-.562,7.779,7.779,0,0,1,8.234.172,7.588,7.588,0,0,1,2.7-1.984,7.28,7.28,0,0,1,.5-7.391a6.99,6.99,0,0,1,2.25-5.3A7.821,7.821,0,0,1,8.359-14.828Zm0,0"/>
      </g>
    </g>
    <g id="Group_98" data-name="Group 98" transform="translate(1654 1788.578)">
      <g id="Group_97" data-name="Group 97" transform="translate(353.028 196.125)">
        <path id="Path_55" data-name="Path 55" class="cls-4" d="M15.031,0H11.3V-5.719H5.2V0H1.469V-14.7H5.2v6.047H11.3V-14.7h3.734Zm0,0"/>
      </g>
    </g>
    <g id="Group_100" data-name="Group 100" transform="translate(1654 1788.578)">
      <g id="Group_99" data-name="Group 99" transform="translate(4.146 196.125)">
        <path id="Path_56" data-name="Path 56" class="cls-4" d="M1.469-14.7H7.875a6.447,6.447,0,0,1,4.359,1.344A4.7,4.7,0,0,1,13.8-9.578a5.191,5.191,0,0,1-1.562,4.016A6.2,6.2,0,0,1,7.875-4.141H5.2V0H1.469ZM5.2-11.766v4.687H7.688a2.746,2.746,0,0,0,1.906-.609,2.267,2.267,0,0,0,.672-1.766,2.185,2.185,0,0,0-.672-1.719,2.8,2.8,0,0,0-1.906-.594Zm0,0"/>
      </g>
    </g>
    <g id="Group_102" data-name="Group 102" transform="translate(1654 1788.578)">
      <g id="Group_101" data-name="Group 101" transform="translate(23.865 196.125)">
        <path id="Path_57" data-name="Path 57" class="cls-4" d="M5.2-3.125h6.234V0H1.469V-14.7H5.2Zm0,0"/>
      </g>
    </g>
    <g id="Group_104" data-name="Group 104" transform="translate(1654 1788.578)">
      <g id="Group_103" data-name="Group 103" transform="translate(41.064 196.125)">
        <path id="Path_58" data-name="Path 58" class="cls-4" d="M11.234-2.7H4.813L3.734,0H-.109L6.234-14.7h3.844L16.281,0h-4ZM10.141-5.547,8.047-10.984,5.906-5.547Zm0,0"/>
      </g>
    </g>
    <g id="Group_106" data-name="Group 106" transform="translate(1654 1788.578)">
      <g id="Group_105" data-name="Group 105" transform="translate(62.673 196.125)">
        <path id="Path_59" data-name="Path 59" class="cls-4" d="M9.047-4.75V0H5.328V-4.641L-.109-14.7h3.75L7.188-8.3,10.641-14.7h3.75Zm0,0"/>
      </g>
    </g>
    <g id="Group_108" data-name="Group 108" transform="translate(1654 1788.578)">
      <g id="Group_107" data-name="Group 107" transform="translate(82.392 196.125)">
        <path id="Path_60" data-name="Path 60" class="cls-4" d="M12.984-11.766H5.2v2.922h7.016v2.938H5.2v2.969h8V0H1.469V-14.7H12.984Zm0,0"/>
      </g>
    </g>
    <g id="Group_110" data-name="Group 110" transform="translate(1654 1788.578)">
      <g id="Group_109" data-name="Group 109" transform="translate(101.985 196.125)">
        <path id="Path_61" data-name="Path 61" class="cls-4" d="M10.328,0,8.141-4.141H5.2V0H1.469V-14.7H8.047a6.823,6.823,0,0,1,4.516,1.344,4.651,4.651,0,0,1,1.594,3.781,4.819,4.819,0,0,1-2.672,4.734L14.578,0ZM5.2-7.078H8.047a2.717,2.717,0,0,0,1.891-.609,2.268,2.268,0,0,0,.672-1.766,2.185,2.185,0,0,0-.672-1.719,2.77,2.77,0,0,0-1.891-.594H5.2Zm0,0"/>
      </g>
    </g>
    <g id="Group_112" data-name="Group 112" transform="translate(1654 1789)">
      <g id="Group_111" data-name="Group 111" transform="translate(67.679 248.032)">
        <path id="Path_62" data-name="Path 62" class="cls-4" d="M6.031-5.734H2.547v1.656H5.766v1.437H2.547V0H.719V-7.172H6.031Zm0,0"/>
      </g>
    </g>
    <g id="Group_114" data-name="Group 114" transform="translate(1654 1789)">
      <g id="Group_113" data-name="Group 113" transform="translate(76.515 248.032)">
        <path id="Path_63" data-name="Path 63" class="cls-4" d="M3.266-5.594a3.067,3.067,0,0,1,2.187.781,2.693,2.693,0,0,1,.828,2.047A2.687,2.687,0,0,1,5.453-.719,3.05,3.05,0,0,1,3.266.063,3.044,3.044,0,0,1,1.078-.719,2.673,2.673,0,0,1,.25-2.766a2.679,2.679,0,0,1,.828-2.047A3.061,3.061,0,0,1,3.266-5.594Zm0,1.406a1.109,1.109,0,0,0-.891.406A1.544,1.544,0,0,0,2.031-2.75,1.517,1.517,0,0,0,2.375-1.7a1.12,1.12,0,0,0,.891.391A1.131,1.131,0,0,0,4.156-1.7,1.536,1.536,0,0,0,4.5-2.75a1.564,1.564,0,0,0-.344-1.031A1.12,1.12,0,0,0,3.266-4.187Zm0,0"/>
      </g>
    </g>
    <g id="Group_116" data-name="Group 116" transform="translate(1654 1789)">
      <g id="Group_115" data-name="Group 115" transform="translate(85.694 248.032)">
        <path id="Path_64" data-name="Path 64" class="cls-4" d="M2.484-5.531v.938a1.968,1.968,0,0,1,1.8-1.016V-4a1.841,1.841,0,0,0-1.25.25,1.165,1.165,0,0,0-.547.906V0H.7V-5.531Zm0,0"/>
      </g>
    </g>
    <g id="Group_118" data-name="Group 118" transform="translate(1654 1789)">
      <g id="Group_117" data-name="Group 117" transform="translate(92.723 248.032)">
        <path id="Path_65" data-name="Path 65" class="cls-4"/>
      </g>
    </g>
    <g id="Group_120" data-name="Group 120" transform="translate(1654 1789)">
      <g id="Group_119" data-name="Group 119" transform="translate(97.754 248.032)">
        <path id="Path_66" data-name="Path 66" class="cls-4" d="M3.922-1.531,4.281-.3A2.941,2.941,0,0,1,2.8.078,1.923,1.923,0,0,1,1.469-.375a1.65,1.65,0,0,1-.5-1.3V-4.109H.188V-5.266H.969V-6.812h1.75v1.531H4.172v1.172H2.719v2.156a.749.749,0,0,0,.125.484.477.477,0,0,0,.391.125A1.917,1.917,0,0,0,3.922-1.531Zm0,0"/>
      </g>
    </g>
    <g id="Group_122" data-name="Group 122" transform="translate(1654 1789)">
      <g id="Group_121" data-name="Group 121" transform="translate(104.864 248.032)">
        <path id="Path_67" data-name="Path 67" class="cls-4" d="M4.391-5.609a1.924,1.924,0,0,1,1.453.578,2.127,2.127,0,0,1,.563,1.547V0H4.641V-3a1.053,1.053,0,0,0-.266-.75.947.947,0,0,0-.719-.281,1.023,1.023,0,0,0-.828.375,1.427,1.427,0,0,0-.3.938V0H.766V-7.609H2.531v3A2.023,2.023,0,0,1,4.391-5.609Zm0,0"/>
      </g>
    </g>
    <g id="Group_124" data-name="Group 124" transform="translate(1654 1789)">
      <g id="Group_123" data-name="Group 123" transform="translate(114.463 248.032)">
        <path id="Path_68" data-name="Path 68" class="cls-4" d="M3.125-5.594A2.609,2.609,0,0,1,5.281-4.7a3.447,3.447,0,0,1,.641,2.422H2.031a1.311,1.311,0,0,0,.469.75,1.291,1.291,0,0,0,.828.266,1.82,1.82,0,0,0,1.328-.562l.938.922A3.155,3.155,0,0,1,3.172.063,2.95,2.95,0,0,1,1.031-.7,2.72,2.72,0,0,1,.25-2.75a2.786,2.786,0,0,1,.781-2.062A2.864,2.864,0,0,1,3.125-5.594ZM2-3.234H4.219a1.149,1.149,0,0,0-.3-.812,1.039,1.039,0,0,0-.781-.312,1.024,1.024,0,0,0-.75.313A1.345,1.345,0,0,0,2-3.234Zm0,0"/>
      </g>
    </g>
    <g id="Group_126" data-name="Group 126" transform="translate(1654 1789)">
      <g id="Group_125" data-name="Group 125" transform="translate(123.284 248.032)">
        <path id="Path_69" data-name="Path 69" class="cls-4"/>
      </g>
    </g>
    <g id="Group_128" data-name="Group 128" transform="translate(1654 1789)">
      <g id="Group_127" data-name="Group 127" transform="translate(128.315 248.032)">
        <path id="Path_70" data-name="Path 70" class="cls-4" d="M2.688-5.609a4.456,4.456,0,0,1,2.281.625L4.359-3.828a3.844,3.844,0,0,0-1.75-.562c-.355,0-.531.133-.531.391,0,.137.1.25.3.344a6.015,6.015,0,0,0,.719.25,6.9,6.9,0,0,1,.859.281,1.644,1.644,0,0,1,.719.531,1.435,1.435,0,0,1,.3.906,1.518,1.518,0,0,1-.641,1.3A2.8,2.8,0,0,1,2.641.078,3.933,3.933,0,0,1,.156-.7L.734-1.828a3.332,3.332,0,0,0,1.953.688c.406,0,.609-.129.609-.391,0-.145-.1-.266-.3-.359a4.24,4.24,0,0,0-.719-.25,5.936,5.936,0,0,1-.844-.281,1.754,1.754,0,0,1-.7-.531,1.361,1.361,0,0,1-.3-.906,1.491,1.491,0,0,1,.625-1.281A2.63,2.63,0,0,1,2.688-5.609Zm0,0"/>
      </g>
    </g>
    <g id="Group_130" data-name="Group 130" transform="translate(1654 1789)">
      <g id="Group_129" data-name="Group 129" transform="translate(136.224 248.032)">
        <path id="Path_71" data-name="Path 71" class="cls-4" d="M3.922-1.531,4.281-.3A2.941,2.941,0,0,1,2.8.078,1.923,1.923,0,0,1,1.469-.375a1.65,1.65,0,0,1-.5-1.3V-4.109H.188V-5.266H.969V-6.812h1.75v1.531H4.172v1.172H2.719v2.156a.749.749,0,0,0,.125.484.477.477,0,0,0,.391.125A1.917,1.917,0,0,0,3.922-1.531Zm0,0"/>
      </g>
    </g>
    <g id="Group_132" data-name="Group 132" transform="translate(1654 1789)">
      <g id="Group_131" data-name="Group 131" transform="translate(143.334 248.032)">
        <path id="Path_72" data-name="Path 72" class="cls-4" d="M2.484-5.531v.938a1.968,1.968,0,0,1,1.8-1.016V-4a1.841,1.841,0,0,0-1.25.25,1.165,1.165,0,0,0-.547.906V0H.7V-5.531Zm0,0"/>
      </g>
    </g>
    <g id="Group_134" data-name="Group 134" transform="translate(1654 1789)">
      <g id="Group_133" data-name="Group 133" transform="translate(150.362 248.032)">
        <path id="Path_73" data-name="Path 73" class="cls-4" d="M6.094-5.531V0H4.313V-.906a1.919,1.919,0,0,1-1.8.984A1.881,1.881,0,0,1,1.078-.5,2.182,2.182,0,0,1,.547-2.047V-5.531H2.313v2.984a1.124,1.124,0,0,0,.25.781.85.85,0,0,0,.672.281.965.965,0,0,0,.781-.375,1.433,1.433,0,0,0,.3-.938V-5.531Zm0,0"/>
      </g>
    </g>
    <g id="Group_136" data-name="Group 136" transform="translate(1654 1789)">
      <g id="Group_135" data-name="Group 135" transform="translate(159.808 248.032)">
        <path id="Path_74" data-name="Path 74" class="cls-4" d="M5.984-5.531V-.5a2.3,2.3,0,0,1-.828,1.859A3.226,3.226,0,0,1,3,2.063,4.329,4.329,0,0,1,.531,1.328L1.141.141A3.028,3.028,0,0,0,2.859.688a1.488,1.488,0,0,0,1-.312,1.019,1.019,0,0,0,.359-.828v-.578A1.868,1.868,0,0,1,2.641-.3,2.227,2.227,0,0,1,.906-1.031,2.792,2.792,0,0,1,.25-2.969,2.725,2.725,0,0,1,.891-4.859a2.18,2.18,0,0,1,1.7-.734,1.909,1.909,0,0,1,1.625.75v-.687ZM3.078-1.578a1.028,1.028,0,0,0,.828-.375,1.465,1.465,0,0,0,.313-.969,1.494,1.494,0,0,0-.312-.984,1.028,1.028,0,0,0-.828-.375,1.085,1.085,0,0,0-.859.375,1.473,1.473,0,0,0-.312.984,1.444,1.444,0,0,0,.313.969A1.085,1.085,0,0,0,3.078-1.578Zm0,0"/>
      </g>
    </g>
    <g id="Group_138" data-name="Group 138" transform="translate(1654 1789)">
      <g id="Group_137" data-name="Group 137" transform="translate(169.089 248.032)">
        <path id="Path_75" data-name="Path 75" class="cls-4" d="M5.984-5.531V-.5a2.3,2.3,0,0,1-.828,1.859A3.226,3.226,0,0,1,3,2.063,4.329,4.329,0,0,1,.531,1.328L1.141.141A3.028,3.028,0,0,0,2.859.688a1.488,1.488,0,0,0,1-.312,1.019,1.019,0,0,0,.359-.828v-.578A1.868,1.868,0,0,1,2.641-.3,2.227,2.227,0,0,1,.906-1.031,2.792,2.792,0,0,1,.25-2.969,2.725,2.725,0,0,1,.891-4.859a2.18,2.18,0,0,1,1.7-.734,1.909,1.909,0,0,1,1.625.75v-.687ZM3.078-1.578a1.028,1.028,0,0,0,.828-.375,1.465,1.465,0,0,0,.313-.969,1.494,1.494,0,0,0-.312-.984,1.028,1.028,0,0,0-.828-.375,1.085,1.085,0,0,0-.859.375,1.473,1.473,0,0,0-.312.984,1.444,1.444,0,0,0,.313.969A1.085,1.085,0,0,0,3.078-1.578Zm0,0"/>
      </g>
    </g>
    <g id="Group_140" data-name="Group 140" transform="translate(1654 1789)">
      <g id="Group_139" data-name="Group 139" transform="translate(178.371 248.032)">
        <path id="Path_76" data-name="Path 76" class="cls-4" d="M2.531,0H.766V-7.609H2.531Zm0,0"/>
      </g>
    </g>
    <g id="Group_142" data-name="Group 142" transform="translate(1654 1789)">
      <g id="Group_141" data-name="Group 141" transform="translate(184.314 248.032)">
        <path id="Path_77" data-name="Path 77" class="cls-4" d="M3.125-5.594A2.609,2.609,0,0,1,5.281-4.7a3.447,3.447,0,0,1,.641,2.422H2.031a1.311,1.311,0,0,0,.469.75,1.291,1.291,0,0,0,.828.266,1.82,1.82,0,0,0,1.328-.562l.938.922A3.155,3.155,0,0,1,3.172.063,2.95,2.95,0,0,1,1.031-.7,2.72,2.72,0,0,1,.25-2.75a2.786,2.786,0,0,1,.781-2.062A2.864,2.864,0,0,1,3.125-5.594ZM2-3.234H4.219a1.149,1.149,0,0,0-.3-.812,1.039,1.039,0,0,0-.781-.312,1.024,1.024,0,0,0-.75.313A1.345,1.345,0,0,0,2-3.234Zm0,0"/>
      </g>
    </g>
    <g id="Group_144" data-name="Group 144" transform="translate(1654 1789)">
      <g id="Group_143" data-name="Group 143" transform="translate(193.134 248.032)">
        <path id="Path_78" data-name="Path 78" class="cls-4"/>
      </g>
    </g>
    <g id="Group_146" data-name="Group 146" transform="translate(1654 1789)">
      <g id="Group_145" data-name="Group 145" transform="translate(198.165 248.032)">
        <path id="Path_79" data-name="Path 79" class="cls-4" d="M3.266-5.594a3.067,3.067,0,0,1,2.187.781,2.693,2.693,0,0,1,.828,2.047A2.687,2.687,0,0,1,5.453-.719,3.05,3.05,0,0,1,3.266.063,3.044,3.044,0,0,1,1.078-.719,2.673,2.673,0,0,1,.25-2.766a2.679,2.679,0,0,1,.828-2.047A3.061,3.061,0,0,1,3.266-5.594Zm0,1.406a1.109,1.109,0,0,0-.891.406A1.544,1.544,0,0,0,2.031-2.75,1.517,1.517,0,0,0,2.375-1.7a1.12,1.12,0,0,0,.891.391A1.131,1.131,0,0,0,4.156-1.7,1.536,1.536,0,0,0,4.5-2.75a1.564,1.564,0,0,0-.344-1.031A1.12,1.12,0,0,0,3.266-4.187Zm0,0"/>
      </g>
    </g>
    <g id="Group_148" data-name="Group 148" transform="translate(1654 1789)">
      <g id="Group_147" data-name="Group 147" transform="translate(207.345 248.032)">
        <path id="Path_80" data-name="Path 80" class="cls-4" d="M3.422-6.281a.629.629,0,0,0-.469.156.578.578,0,0,0-.172.453v.391h1.25v1.172H2.781V0H1.031V-4.109H.281V-5.281h.75V-5.8a1.715,1.715,0,0,1,.594-1.391,2.272,2.272,0,0,1,1.516-.5A2.993,2.993,0,0,1,4.688-7.3L4.063-6.062A1.076,1.076,0,0,0,3.422-6.281Zm0,0"/>
      </g>
    </g>
    <g id="Group_150" data-name="Group 150" transform="translate(1654 1789)">
      <g id="Group_149" data-name="Group 149" transform="translate(213.953 248.032)">
        <path id="Path_81" data-name="Path 81" class="cls-4"/>
      </g>
    </g>
    <g id="Group_152" data-name="Group 152" transform="translate(1654 1789)">
      <g id="Group_151" data-name="Group 151" transform="translate(218.984 248.032)">
        <path id="Path_82" data-name="Path 82" class="cls-4" d="M3.109-5.594a3.188,3.188,0,0,1,1.469.328,2.478,2.478,0,0,1,1,.922l-1.266.766a1.331,1.331,0,0,0-1.125-.578,1.06,1.06,0,0,0-.844.391A1.569,1.569,0,0,0,2.031-2.75a1.554,1.554,0,0,0,.313,1.016,1.07,1.07,0,0,0,.844.375,1.186,1.186,0,0,0,1.125-.625l1.3.766a2.382,2.382,0,0,1-1,.953A3.3,3.3,0,0,1,3.094.063,2.811,2.811,0,0,1,1.031-.7,2.756,2.756,0,0,1,.25-2.75,2.762,2.762,0,0,1,1.031-4.8,2.809,2.809,0,0,1,3.109-5.594Zm0,0"/>
      </g>
    </g>
    <g id="Group_154" data-name="Group 154" transform="translate(1654 1789)">
      <g id="Group_153" data-name="Group 153" transform="translate(227.395 248.032)">
        <path id="Path_83" data-name="Path 83" class="cls-4" d="M3.266-5.594a3.067,3.067,0,0,1,2.187.781,2.693,2.693,0,0,1,.828,2.047A2.687,2.687,0,0,1,5.453-.719,3.05,3.05,0,0,1,3.266.063,3.044,3.044,0,0,1,1.078-.719,2.673,2.673,0,0,1,.25-2.766a2.679,2.679,0,0,1,.828-2.047A3.061,3.061,0,0,1,3.266-5.594Zm0,1.406a1.109,1.109,0,0,0-.891.406A1.544,1.544,0,0,0,2.031-2.75,1.517,1.517,0,0,0,2.375-1.7a1.12,1.12,0,0,0,.891.391A1.131,1.131,0,0,0,4.156-1.7,1.536,1.536,0,0,0,4.5-2.75a1.564,1.564,0,0,0-.344-1.031A1.12,1.12,0,0,0,3.266-4.187Zm0,0"/>
      </g>
    </g>
    <g id="Group_156" data-name="Group 156" transform="translate(1654 1789)">
      <g id="Group_155" data-name="Group 155" transform="translate(236.574 248.032)">
        <path id="Path_84" data-name="Path 84" class="cls-4" d="M8.094-5.609a1.871,1.871,0,0,1,1.438.578,2.169,2.169,0,0,1,.547,1.547V0H8.313V-3a1.08,1.08,0,0,0-.266-.766.878.878,0,0,0-.687-.281,1.011,1.011,0,0,0-.781.375,1.427,1.427,0,0,0-.3.938V0H4.516V-3a1.08,1.08,0,0,0-.266-.766.878.878,0,0,0-.687-.281,1,1,0,0,0-.8.391,1.4,1.4,0,0,0-.3.922V0H.7V-5.531H2.469v.922a1.977,1.977,0,0,1,1.828-1,1.973,1.973,0,0,1,1.156.344,1.8,1.8,0,0,1,.688.906A2,2,0,0,1,8.094-5.609Zm0,0"/>
      </g>
    </g>
    <g id="Group_158" data-name="Group 158" transform="translate(1654 1789)">
      <g id="Group_157" data-name="Group 157" transform="translate(249.85 248.032)">
        <path id="Path_85" data-name="Path 85" class="cls-4" d="M4.188-5.594a2.41,2.41,0,0,1,1.875.8,2.947,2.947,0,0,1,.719,2.062A2.881,2.881,0,0,1,6.078-.7,2.4,2.4,0,0,1,4.219.063a2.005,2.005,0,0,1-1.687-.8V1.984H.766V-5.531H2.531V-4.8A1.972,1.972,0,0,1,4.188-5.594ZM3.75-1.344a1.077,1.077,0,0,0,.891-.406,1.55,1.55,0,0,0,.344-1.031,1.522,1.522,0,0,0-.344-1.031,1.088,1.088,0,0,0-.891-.406,1.094,1.094,0,0,0-.875.406,1.5,1.5,0,0,0-.344,1.031,1.606,1.606,0,0,0,.328,1.047A1.12,1.12,0,0,0,3.75-1.344Zm0,0"/>
      </g>
    </g>
    <g id="Group_160" data-name="Group 160" transform="translate(1654 1789)">
      <g id="Group_159" data-name="Group 159" transform="translate(259.521 248.032)">
        <path id="Path_86" data-name="Path 86" class="cls-4" d="M3.125-5.594A2.609,2.609,0,0,1,5.281-4.7a3.447,3.447,0,0,1,.641,2.422H2.031a1.311,1.311,0,0,0,.469.75,1.291,1.291,0,0,0,.828.266,1.82,1.82,0,0,0,1.328-.562l.938.922A3.155,3.155,0,0,1,3.172.063,2.95,2.95,0,0,1,1.031-.7,2.72,2.72,0,0,1,.25-2.75a2.786,2.786,0,0,1,.781-2.062A2.864,2.864,0,0,1,3.125-5.594ZM2-3.234H4.219a1.149,1.149,0,0,0-.3-.812,1.039,1.039,0,0,0-.781-.312,1.024,1.024,0,0,0-.75.313A1.345,1.345,0,0,0,2-3.234Zm0,0"/>
      </g>
    </g>
    <g id="Group_162" data-name="Group 162" transform="translate(1654 1789)">
      <g id="Group_161" data-name="Group 161" transform="translate(268.342 248.032)">
        <path id="Path_87" data-name="Path 87" class="cls-4" d="M3.922-1.531,4.281-.3A2.941,2.941,0,0,1,2.8.078,1.923,1.923,0,0,1,1.469-.375a1.65,1.65,0,0,1-.5-1.3V-4.109H.188V-5.266H.969V-6.812h1.75v1.531H4.172v1.172H2.719v2.156a.749.749,0,0,0,.125.484.477.477,0,0,0,.391.125A1.917,1.917,0,0,0,3.922-1.531Zm0,0"/>
      </g>
    </g>
    <g id="Group_164" data-name="Group 164" transform="translate(1654 1789)">
      <g id="Group_163" data-name="Group 163" transform="translate(275.452 248.032)">
        <path id="Path_88" data-name="Path 88" class="cls-4" d="M.922-7.781a.909.909,0,0,1,.672-.266.885.885,0,0,1,.672.266.885.885,0,0,1,.266.672.909.909,0,0,1-.266.672.871.871,0,0,1-.672.266.9.9,0,0,1-.672-.266.93.93,0,0,1-.25-.672A.9.9,0,0,1,.922-7.781ZM2.469,0H.7V-5.531H2.469Zm0,0"/>
      </g>
    </g>
    <g id="Group_166" data-name="Group 166" transform="translate(1654 1789)">
      <g id="Group_165" data-name="Group 165" transform="translate(281.292 248.032)">
        <path id="Path_89" data-name="Path 89" class="cls-4" d="M3.922-1.531,4.281-.3A2.941,2.941,0,0,1,2.8.078,1.923,1.923,0,0,1,1.469-.375a1.65,1.65,0,0,1-.5-1.3V-4.109H.188V-5.266H.969V-6.812h1.75v1.531H4.172v1.172H2.719v2.156a.749.749,0,0,0,.125.484.477.477,0,0,0,.391.125A1.917,1.917,0,0,0,3.922-1.531Zm0,0"/>
      </g>
    </g>
    <g id="Group_168" data-name="Group 168" transform="translate(1654 1789)">
      <g id="Group_167" data-name="Group 167" transform="translate(288.402 248.032)">
        <path id="Path_90" data-name="Path 90" class="cls-4" d="M.922-7.781a.909.909,0,0,1,.672-.266.885.885,0,0,1,.672.266.885.885,0,0,1,.266.672.909.909,0,0,1-.266.672.871.871,0,0,1-.672.266.9.9,0,0,1-.672-.266.93.93,0,0,1-.25-.672A.9.9,0,0,1,.922-7.781ZM2.469,0H.7V-5.531H2.469Zm0,0"/>
      </g>
    </g>
    <g id="Group_170" data-name="Group 170" transform="translate(1654 1789)">
      <g id="Group_169" data-name="Group 169" transform="translate(294.243 248.032)">
        <path id="Path_91" data-name="Path 91" class="cls-4" d="M3.266-5.594a3.067,3.067,0,0,1,2.187.781,2.693,2.693,0,0,1,.828,2.047A2.687,2.687,0,0,1,5.453-.719,3.05,3.05,0,0,1,3.266.063,3.044,3.044,0,0,1,1.078-.719,2.673,2.673,0,0,1,.25-2.766a2.679,2.679,0,0,1,.828-2.047A3.061,3.061,0,0,1,3.266-5.594Zm0,1.406a1.109,1.109,0,0,0-.891.406A1.544,1.544,0,0,0,2.031-2.75,1.517,1.517,0,0,0,2.375-1.7a1.12,1.12,0,0,0,.891.391A1.131,1.131,0,0,0,4.156-1.7,1.536,1.536,0,0,0,4.5-2.75a1.564,1.564,0,0,0-.344-1.031A1.12,1.12,0,0,0,3.266-4.187Zm0,0"/>
      </g>
    </g>
    <g id="Group_172" data-name="Group 172" transform="translate(1654 1789)">
      <g id="Group_171" data-name="Group 171" transform="translate(303.422 248.032)">
        <path id="Path_92" data-name="Path 92" class="cls-4" d="M4.328-5.609a1.924,1.924,0,0,1,1.453.578,2.127,2.127,0,0,1,.563,1.547V0H4.578V-3a1.053,1.053,0,0,0-.266-.75.9.9,0,0,0-.7-.281,1.063,1.063,0,0,0-.781.313,1.25,1.25,0,0,0-.344.8V0H.7V-5.531H2.484v.906A2.021,2.021,0,0,1,4.328-5.609Zm0,0"/>
      </g>
    </g>
  </g>
</svg>
